<svg id="SvgjsSvg1084" width="288" height="288" xmlns="http://www.w3.org/2000/svg" version="1.1" xmlns:xlink="http://www.w3.org/1999/xlink" xmlns:svgjs="http://svgjs.com/svgjs"><defs id="SvgjsDefs1085"></defs><g id="SvgjsG1086"><svg xmlns="http://www.w3.org/2000/svg" viewBox="0 0 128 128" width="288" height="288"><path fill="#dadada" d="M102.94 34.79c-2 10-7 15-11 24.92C91 30.8 68.81 9.88 65 5.87c.09 15-13.87 31.91-18.86 46.86-4.31-13-21-23.23-21-23.23 2.15 14.18-3.91 19.24-3.91 40.18C21.19 83.88 30.3 94.83 37 101a61 61 0 0 0 5.88 4.72A32.58 32.58 0 0 1 39 91c0-12.3 4.69-16.19 3.42-24.52 0 0 9.81 3.78 12.34 11.42 2.93-8.79 11.12-16.52 11.07-25.3 2.25 2.35 13.46 12.45 16.81 27 2.23-3.12 4.3-4.15 5.47-10 4.69 4.68 9 14.15 5.91 26.6a39.16 39.16 0 0 1-3.67 8.58 44.05 44.05 0 0 0 4.13-3.52c5.19-4.7 12.12-12.11 15.42-20.6 7-17.96 1.02-37.9-6.96-45.87ZM55.48 64.34A3.12 3.12 0 1 1 56 60a3.12 3.12 0 0 1-.52 4.34Zm16.58-16a2.08 2.08 0 1 1-.44-2.91 2.07 2.07 0 0 1 .44 2.88Zm31.17 30.56a3.11 3.11 0 1 1 .54-4.37 3.11 3.11 0 0 1-.54 4.34Z" class="colorffc960 svgShape"></path><path fill="none" stroke="#252d32" stroke-linecap="round" stroke-linejoin="round" stroke-width="3" d="m58.12 80.52-8.34 4.82M83.22 85.3l-14.07-8.13M85.5 106.5v-16M69.21 118.27l13.43-7.75M50.16 110.37l13.64 7.87M47.5 90.5v16" class="colorStroke252d32 svgStroke"></path><circle cx="66.66" cy="118.24" r="3.63" fill="#15d676" class="color79c651 svgShape"></circle><circle cx="66.66" cy="76.71" r="3.63" fill="#15d676" class="color79c651 svgShape"></circle><path fill="#15d676" d="M48 105.26a3.64 3.64 0 1 0 3.63 3.63 3.63 3.63 0 0 0-3.63-3.63zm0-21.8a3.64 3.64 0 1 0 3.63 3.63A3.63 3.63 0 0 0 48 83.46zm37.35 21.8a3.64 3.64 0 1 0 3.65 3.63 3.63 3.63 0 0 0-3.65-3.63zm0-21.8A3.64 3.64 0 1 0 89 87.09a3.63 3.63 0 0 0-3.65-3.63z" class="color79c651 svgShape"></path><path fill="none" stroke="#252d32" stroke-linecap="round" stroke-linejoin="round" stroke-width="3" d="m25.04 43.97-3.86 9.54M37.75 40.54l-10.13 1.42M46.86 50.04l-6.21-7.95M31.06 65.77l9.81-1.37M21.99 56.65l6.2 7.95" class="colorStroke252d32 svgStroke"></path><path fill="#252d32" d="M37.66 38.25a3.11 3.11 0 1 0 4.37.54 3.11 3.11 0 0 0-4.37-.54zm7.76 10.8a3.11 3.11 0 1 0 4.37.53 3.11 3.11 0 0 0-4.37-.53zM88.65 25.5a3.11 3.11 0 1 0 4.35-.66 3.11 3.11 0 0 0-4.35.66zm-11.42-3.11a3.11 3.11 0 1 0 4.35-.66 3.1 3.1 0 0 0-4.35.66z" class="color252d32 svgShape"></path><path fill="none" stroke="#252d32" stroke-linecap="round" stroke-linejoin="round" stroke-width="3" d="m78.55 25.9-5.53 6.4M89.34 26.59l-8.25-1.57M93.91 36.38l-2.72-7.82M88.11 45.07 93.34 39M79.97 44.92l5.5 1.05M72.82 34.97l1.73 4.95" class="colorStroke252d32 svgStroke"></path><path fill="#252d32" d="M84.49 44.19a3.12 3.12 0 1 0 4.36-.66 3.11 3.11 0 0 0-4.36.66zm6.23-8.31a3.11 3.11 0 1 0 4.36-.66 3.12 3.12 0 0 0-4.36.66zm-66.46 4.01a3.11 3.11 0 1 0 4.37.54 3.13 3.13 0 0 0-4.37-.54zm-4.63 12.72a3.11 3.11 0 1 0 4.37.54 3.11 3.11 0 0 0-4.37-.54zm8.04 9.79a3.11 3.11 0 1 0 4.37.54 3.12 3.12 0 0 0-4.37-.54zM70 30.69a3.11 3.11 0 1 0 4.31-.69 3.12 3.12 0 0 0-4.31.69z" class="color252d32 svgShape"></path></svg></g></svg>