<svg id="visual" viewBox="0 0 540 960" width="540" height="960" xmlns="http://www.w3.org/2000/svg" xmlns:xlink="http://www.w3.org/1999/xlink" version="1.1"><g stroke-width="1" stroke-linejoin="bevel"><path d="M278 511L204.5 518L258 567Z" fill="#e9e9e9" stroke="#e9e9e9"></path><path d="M204.5 518L204.5 582L258 567Z" fill="#ececec" stroke="#ececec"></path><path d="M278 511L206.5 461L204.5 518Z" fill="#f4f4f4" stroke="#f4f4f4"></path><path d="M278 511L257 447L206.5 461Z" fill="#e9e9e9" stroke="#e9e9e9"></path><path d="M258 567L340.5 521L278 511Z" fill="#e1e1e1" stroke="#e1e1e1"></path><path d="M278 511L349.5 440L257 447Z" fill="#e4e4e4" stroke="#e4e4e4"></path><path d="M206.5 461L133 511L204.5 518Z" fill="#e4e4e4" stroke="#e4e4e4"></path><path d="M204.5 518L122 572L204.5 582Z" fill="#e6e6e6" stroke="#e6e6e6"></path><path d="M204.5 582L282 639L258 567Z" fill="#e6e6e6" stroke="#e6e6e6"></path><path d="M258 567L349.5 585L340.5 521Z" fill="#dedede" stroke="#dedede"></path><path d="M282 639L349.5 585L258 567Z" fill="#fafafa" stroke="#fafafa"></path><path d="M138 630L196.5 643L204.5 582Z" fill="#fafafa" stroke="#fafafa"></path><path d="M204.5 582L196.5 643L282 639Z" fill="#e4e4e4" stroke="#e4e4e4"></path><path d="M133 511L122 572L204.5 518Z" fill="#e4e4e4" stroke="#e4e4e4"></path><path d="M196.5 382L148 435L206.5 461Z" fill="#fafafa" stroke="#fafafa"></path><path d="M206.5 461L148 435L133 511Z" fill="#f2f2f2" stroke="#f2f2f2"></path><path d="M417 503L349.5 440L340.5 521Z" fill="#f2f2f2" stroke="#f2f2f2"></path><path d="M340.5 521L349.5 440L278 511Z" fill="#ececec" stroke="#ececec"></path><path d="M257 447L196.5 382L206.5 461Z" fill="#fafafa" stroke="#fafafa"></path><path d="M335.5 394L256 386L257 447Z" fill="#efefef" stroke="#efefef"></path><path d="M122 572L138 630L204.5 582Z" fill="#dedede" stroke="#dedede"></path><path d="M282 639L338.5 641L349.5 585Z" fill="#dedede" stroke="#dedede"></path><path d="M327.5 717L338.5 641L282 639Z" fill="#e9e9e9" stroke="#e9e9e9"></path><path d="M256 386L196.5 382L257 447Z" fill="#f2f2f2" stroke="#f2f2f2"></path><path d="M338.5 641L396 589L349.5 585Z" fill="#e9e9e9" stroke="#e9e9e9"></path><path d="M349.5 585L396 589L340.5 521Z" fill="#efefef" stroke="#efefef"></path><path d="M394 383L335.5 394L349.5 440Z" fill="#efefef" stroke="#efefef"></path><path d="M349.5 440L335.5 394L257 447Z" fill="#ececec" stroke="#ececec"></path><path d="M142 707L215.5 693L196.5 643Z" fill="#fafafa" stroke="#fafafa"></path><path d="M196.5 643L215.5 693L282 639Z" fill="#f4f4f4" stroke="#f4f4f4"></path><path d="M215.5 693L267 694L282 639Z" fill="#e6e6e6" stroke="#e6e6e6"></path><path d="M396 589L417 503L340.5 521Z" fill="#dedede" stroke="#dedede"></path><path d="M196.5 382L133 390L148 435Z" fill="#e9e9e9" stroke="#e9e9e9"></path><path d="M70.5 437L60.5 520L133 511Z" fill="#f2f2f2" stroke="#f2f2f2"></path><path d="M133 511L60.5 520L122 572Z" fill="#fafafa" stroke="#fafafa"></path><path d="M70.5 437L133 511L148 435Z" fill="#e4e4e4" stroke="#e4e4e4"></path><path d="M122 572L66.5 646L138 630Z" fill="#e1e1e1" stroke="#e1e1e1"></path><path d="M417 503L416 455L349.5 440Z" fill="#e6e6e6" stroke="#e6e6e6"></path><path d="M60.5 520L57.5 572L122 572Z" fill="#f4f4f4" stroke="#f4f4f4"></path><path d="M138 630L142 707L196.5 643Z" fill="#efefef" stroke="#efefef"></path><path d="M133 390L70.5 437L148 435Z" fill="#efefef" stroke="#efefef"></path><path d="M411 717L410 646L338.5 641Z" fill="#ececec" stroke="#ececec"></path><path d="M338.5 641L410 646L396 589Z" fill="#e4e4e4" stroke="#e4e4e4"></path><path d="M396 589L462.5 577L417 503Z" fill="#ececec" stroke="#ececec"></path><path d="M66.5 646L142 707L138 630Z" fill="#e9e9e9" stroke="#e9e9e9"></path><path d="M280 756L327.5 717L267 694Z" fill="#f2f2f2" stroke="#f2f2f2"></path><path d="M280 756L267 694L215.5 693Z" fill="#f2f2f2" stroke="#f2f2f2"></path><path d="M267 694L327.5 717L282 639Z" fill="#e6e6e6" stroke="#e6e6e6"></path><path d="M256 386L203.5 324L196.5 382Z" fill="#f7f7f7" stroke="#f7f7f7"></path><path d="M196.5 382L136 318L133 390Z" fill="#e6e6e6" stroke="#e6e6e6"></path><path d="M133 390L62.5 396L70.5 437Z" fill="#e1e1e1" stroke="#e1e1e1"></path><path d="M275 316L203.5 324L256 386Z" fill="#ececec" stroke="#ececec"></path><path d="M416 455L394 383L349.5 440Z" fill="#f7f7f7" stroke="#f7f7f7"></path><path d="M335.5 394L275 316L256 386Z" fill="#dedede" stroke="#dedede"></path><path d="M57.5 572L66.5 646L122 572Z" fill="#e9e9e9" stroke="#e9e9e9"></path><path d="M331.5 318L275 316L335.5 394Z" fill="#f2f2f2" stroke="#f2f2f2"></path><path d="M76.5 330L62.5 396L133 390Z" fill="#e9e9e9" stroke="#e9e9e9"></path><path d="M0 445L0 516L60.5 520Z" fill="#e4e4e4" stroke="#e4e4e4"></path><path d="M60.5 520L0 571L57.5 572Z" fill="#f7f7f7" stroke="#f7f7f7"></path><path d="M410 646L462.5 577L396 589Z" fill="#e6e6e6" stroke="#e6e6e6"></path><path d="M417 503L465.5 443L416 455Z" fill="#dedede" stroke="#dedede"></path><path d="M416 455L465.5 443L394 383Z" fill="#fafafa" stroke="#fafafa"></path><path d="M462.5 577L467.5 523L417 503Z" fill="#f4f4f4" stroke="#f4f4f4"></path><path d="M194.5 763L280 756L215.5 693Z" fill="#efefef" stroke="#efefef"></path><path d="M394 383L331.5 318L335.5 394Z" fill="#efefef" stroke="#efefef"></path><path d="M203.5 324L136 318L196.5 382Z" fill="#efefef" stroke="#efefef"></path><path d="M137 262L136 318L203.5 324Z" fill="#e6e6e6" stroke="#e6e6e6"></path><path d="M129 760L194.5 763L142 707Z" fill="#dedede" stroke="#dedede"></path><path d="M142 707L194.5 763L215.5 693Z" fill="#efefef" stroke="#efefef"></path><path d="M467.5 523L465.5 443L417 503Z" fill="#e4e4e4" stroke="#e4e4e4"></path><path d="M394 383L400 311L331.5 318Z" fill="#e4e4e4" stroke="#e4e4e4"></path><path d="M0 705L68.5 698L66.5 646Z" fill="#f4f4f4" stroke="#f4f4f4"></path><path d="M66.5 646L68.5 698L142 707Z" fill="#ececec" stroke="#ececec"></path><path d="M0 445L60.5 520L70.5 437Z" fill="#ececec" stroke="#ececec"></path><path d="M57.5 572L0 636L66.5 646Z" fill="#f7f7f7" stroke="#f7f7f7"></path><path d="M329.5 829L330.5 759L280 756Z" fill="#e9e9e9" stroke="#e9e9e9"></path><path d="M280 756L330.5 759L327.5 717Z" fill="#dedede" stroke="#dedede"></path><path d="M327.5 717L411 717L338.5 641Z" fill="#e6e6e6" stroke="#e6e6e6"></path><path d="M410 646L484.5 643L462.5 577Z" fill="#efefef" stroke="#efefef"></path><path d="M0 516L0 571L60.5 520Z" fill="#ececec" stroke="#ececec"></path><path d="M330.5 759L411 717L327.5 717Z" fill="#e1e1e1" stroke="#e1e1e1"></path><path d="M68.5 698L129 760L142 707Z" fill="#efefef" stroke="#efefef"></path><path d="M62.5 396L0 445L70.5 437Z" fill="#e6e6e6" stroke="#e6e6e6"></path><path d="M0 391L0 445L62.5 396Z" fill="#e9e9e9" stroke="#e9e9e9"></path><path d="M136 318L76.5 330L133 390Z" fill="#f7f7f7" stroke="#f7f7f7"></path><path d="M0 571L0 636L57.5 572Z" fill="#ececec" stroke="#ececec"></path><path d="M68.5 698L67.5 766L129 760Z" fill="#e1e1e1" stroke="#e1e1e1"></path><path d="M461.5 691L484.5 643L410 646Z" fill="#dedede" stroke="#dedede"></path><path d="M540 581L540 500L467.5 523Z" fill="#e9e9e9" stroke="#e9e9e9"></path><path d="M540 452L478.5 378L465.5 443Z" fill="#fafafa" stroke="#fafafa"></path><path d="M478.5 378L400 311L394 383Z" fill="#f7f7f7" stroke="#f7f7f7"></path><path d="M265 253L213.5 257L275 316Z" fill="#f7f7f7" stroke="#f7f7f7"></path><path d="M275 316L213.5 257L203.5 324Z" fill="#ececec" stroke="#ececec"></path><path d="M484.5 767L461.5 691L411 717Z" fill="#e1e1e1" stroke="#e1e1e1"></path><path d="M411 717L461.5 691L410 646Z" fill="#e1e1e1" stroke="#e1e1e1"></path><path d="M328.5 267L275 316L331.5 318Z" fill="#f7f7f7" stroke="#f7f7f7"></path><path d="M136 318L137 262L76.5 330Z" fill="#e9e9e9" stroke="#e9e9e9"></path><path d="M400 311L328.5 267L331.5 318Z" fill="#f4f4f4" stroke="#f4f4f4"></path><path d="M328.5 267L265 253L275 316Z" fill="#e6e6e6" stroke="#e6e6e6"></path><path d="M76.5 330L0 391L62.5 396Z" fill="#f4f4f4" stroke="#f4f4f4"></path><path d="M465.5 443L478.5 378L394 383Z" fill="#f7f7f7" stroke="#f7f7f7"></path><path d="M540 500L465.5 443L467.5 523Z" fill="#f2f2f2" stroke="#f2f2f2"></path><path d="M54.5 266L137 262L73.5 201Z" fill="#e9e9e9" stroke="#e9e9e9"></path><path d="M213.5 257L137 262L203.5 324Z" fill="#e4e4e4" stroke="#e4e4e4"></path><path d="M76.5 330L0 316L0 391Z" fill="#dedede" stroke="#dedede"></path><path d="M330.5 759L410 770L411 717Z" fill="#e1e1e1" stroke="#e1e1e1"></path><path d="M329.5 829L410 770L330.5 759Z" fill="#fafafa" stroke="#fafafa"></path><path d="M0 705L67.5 766L68.5 698Z" fill="#dedede" stroke="#dedede"></path><path d="M193.5 843L266 839L194.5 763Z" fill="#e1e1e1" stroke="#e1e1e1"></path><path d="M194.5 763L266 839L280 756Z" fill="#e1e1e1" stroke="#e1e1e1"></path><path d="M540 581L467.5 523L462.5 577Z" fill="#efefef" stroke="#efefef"></path><path d="M0 636L0 705L66.5 646Z" fill="#f4f4f4" stroke="#f4f4f4"></path><path d="M540 637L540 581L484.5 643Z" fill="#ececec" stroke="#ececec"></path><path d="M484.5 643L540 581L462.5 577Z" fill="#efefef" stroke="#efefef"></path><path d="M540 637L484.5 643L540 693Z" fill="#ececec" stroke="#ececec"></path><path d="M540 500L540 452L465.5 443Z" fill="#e9e9e9" stroke="#e9e9e9"></path><path d="M193.5 843L194.5 763L131 843Z" fill="#dedede" stroke="#dedede"></path><path d="M266 839L329.5 829L280 756Z" fill="#fafafa" stroke="#fafafa"></path><path d="M469.5 307L400 311L478.5 378Z" fill="#e9e9e9" stroke="#e9e9e9"></path><path d="M475.5 266L391 256L400 311Z" fill="#f2f2f2" stroke="#f2f2f2"></path><path d="M400 311L391 256L328.5 267Z" fill="#f4f4f4" stroke="#f4f4f4"></path><path d="M328.5 194L259 205L265 253Z" fill="#dedede" stroke="#dedede"></path><path d="M540 693L484.5 643L461.5 691Z" fill="#e9e9e9" stroke="#e9e9e9"></path><path d="M131 843L194.5 763L129 760Z" fill="#efefef" stroke="#efefef"></path><path d="M540 316L469.5 307L478.5 378Z" fill="#fafafa" stroke="#fafafa"></path><path d="M54.5 266L0 316L76.5 330Z" fill="#e1e1e1" stroke="#e1e1e1"></path><path d="M137 262L54.5 266L76.5 330Z" fill="#fafafa" stroke="#fafafa"></path><path d="M215.5 196L137 262L213.5 257Z" fill="#efefef" stroke="#efefef"></path><path d="M328.5 194L265 253L328.5 267Z" fill="#e4e4e4" stroke="#e4e4e4"></path><path d="M265 253L259 205L213.5 257Z" fill="#ececec" stroke="#ececec"></path><path d="M77.5 832L131 843L129 760Z" fill="#efefef" stroke="#efefef"></path><path d="M77.5 832L129 760L67.5 766Z" fill="#efefef" stroke="#efefef"></path><path d="M329.5 829L412 818L410 770Z" fill="#e6e6e6" stroke="#e6e6e6"></path><path d="M410 770L484.5 767L411 717Z" fill="#f2f2f2" stroke="#f2f2f2"></path><path d="M334.5 888L412 818L329.5 829Z" fill="#f4f4f4" stroke="#f4f4f4"></path><path d="M540 452L540 376L478.5 378Z" fill="#efefef" stroke="#efefef"></path><path d="M259 205L215.5 196L213.5 257Z" fill="#f2f2f2" stroke="#f2f2f2"></path><path d="M0 705L0 762L67.5 766Z" fill="#ececec" stroke="#ececec"></path><path d="M412 818L484.5 767L410 770Z" fill="#f2f2f2" stroke="#f2f2f2"></path><path d="M484.5 767L540 693L461.5 691Z" fill="#efefef" stroke="#efefef"></path><path d="M0 824L77.5 832L67.5 766Z" fill="#dedede" stroke="#dedede"></path><path d="M391 256L328.5 194L328.5 267Z" fill="#ececec" stroke="#ececec"></path><path d="M259 205L274 130L215.5 196Z" fill="#efefef" stroke="#efefef"></path><path d="M396 200L328.5 194L391 256Z" fill="#f4f4f4" stroke="#f4f4f4"></path><path d="M540 316L475.5 266L469.5 307Z" fill="#f4f4f4" stroke="#f4f4f4"></path><path d="M469.5 307L475.5 266L400 311Z" fill="#f4f4f4" stroke="#f4f4f4"></path><path d="M0 205L0 267L54.5 266Z" fill="#e4e4e4" stroke="#e4e4e4"></path><path d="M54.5 266L0 267L0 316Z" fill="#f4f4f4" stroke="#f4f4f4"></path><path d="M121 137L134 186L200.5 118Z" fill="#e1e1e1" stroke="#e1e1e1"></path><path d="M215.5 196L134 186L137 262Z" fill="#e1e1e1" stroke="#e1e1e1"></path><path d="M214.5 897L283 891L266 839Z" fill="#ececec" stroke="#ececec"></path><path d="M266 839L283 891L329.5 829Z" fill="#f7f7f7" stroke="#f7f7f7"></path><path d="M214.5 897L266 839L193.5 843Z" fill="#e6e6e6" stroke="#e6e6e6"></path><path d="M214.5 897L193.5 843L129 892Z" fill="#f7f7f7" stroke="#f7f7f7"></path><path d="M473.5 204L396 200L391 256Z" fill="#efefef" stroke="#efefef"></path><path d="M540 376L540 316L478.5 378Z" fill="#e6e6e6" stroke="#e6e6e6"></path><path d="M475.5 266L473.5 204L391 256Z" fill="#ececec" stroke="#ececec"></path><path d="M129 892L193.5 843L131 843Z" fill="#e1e1e1" stroke="#e1e1e1"></path><path d="M414 893L334.5 888L395 960Z" fill="#e6e6e6" stroke="#e6e6e6"></path><path d="M283 891L334.5 888L329.5 829Z" fill="#e4e4e4" stroke="#e4e4e4"></path><path d="M540 837L540 755L484.5 767Z" fill="#e1e1e1" stroke="#e1e1e1"></path><path d="M134 186L73.5 201L137 262Z" fill="#e1e1e1" stroke="#e1e1e1"></path><path d="M482.5 837L484.5 767L412 818Z" fill="#f4f4f4" stroke="#f4f4f4"></path><path d="M484.5 767L540 755L540 693Z" fill="#dedede" stroke="#dedede"></path><path d="M77.5 832L129 892L131 843Z" fill="#e1e1e1" stroke="#e1e1e1"></path><path d="M65.5 894L129 892L77.5 832Z" fill="#f2f2f2" stroke="#f2f2f2"></path><path d="M0 762L0 824L67.5 766Z" fill="#e4e4e4" stroke="#e4e4e4"></path><path d="M471.5 883L482.5 837L412 818Z" fill="#fafafa" stroke="#fafafa"></path><path d="M540 258L473.5 204L475.5 266Z" fill="#f4f4f4" stroke="#f4f4f4"></path><path d="M342.5 140L274 130L328.5 194Z" fill="#fafafa" stroke="#fafafa"></path><path d="M342.5 140L328.5 194L396 200Z" fill="#f7f7f7" stroke="#f7f7f7"></path><path d="M328.5 194L274 130L259 205Z" fill="#dedede" stroke="#dedede"></path><path d="M0 138L0 205L73.5 201Z" fill="#f2f2f2" stroke="#f2f2f2"></path><path d="M330.5 960L334.5 888L283 891Z" fill="#efefef" stroke="#efefef"></path><path d="M334.5 888L414 893L412 818Z" fill="#efefef" stroke="#efefef"></path><path d="M411 134L342.5 140L396 200Z" fill="#fafafa" stroke="#fafafa"></path><path d="M540 316L540 258L475.5 266Z" fill="#dedede" stroke="#dedede"></path><path d="M190.5 960L257 960L214.5 897Z" fill="#f4f4f4" stroke="#f4f4f4"></path><path d="M0 824L65.5 894L77.5 832Z" fill="#fafafa" stroke="#fafafa"></path><path d="M121 137L73.5 201L134 186Z" fill="#e4e4e4" stroke="#e4e4e4"></path><path d="M73.5 201L0 205L54.5 266Z" fill="#e1e1e1" stroke="#e1e1e1"></path><path d="M200.5 118L134 186L215.5 196Z" fill="#f7f7f7" stroke="#f7f7f7"></path><path d="M274 130L200.5 118L215.5 196Z" fill="#f2f2f2" stroke="#f2f2f2"></path><path d="M257 67L200.5 118L274 130Z" fill="#e6e6e6" stroke="#e6e6e6"></path><path d="M414 893L471.5 883L412 818Z" fill="#e9e9e9" stroke="#e9e9e9"></path><path d="M482.5 837L540 837L484.5 767Z" fill="#e1e1e1" stroke="#e1e1e1"></path><path d="M540 888L540 837L482.5 837Z" fill="#e6e6e6" stroke="#e6e6e6"></path><path d="M473.5 204L411 134L396 200Z" fill="#f2f2f2" stroke="#f2f2f2"></path><path d="M347.5 57L257 67L274 130Z" fill="#f2f2f2" stroke="#f2f2f2"></path><path d="M477.5 133L411 134L473.5 204Z" fill="#fafafa" stroke="#fafafa"></path><path d="M214.5 897L257 960L283 891Z" fill="#ececec" stroke="#ececec"></path><path d="M414 893L470.5 960L471.5 883Z" fill="#e9e9e9" stroke="#e9e9e9"></path><path d="M190.5 960L214.5 897L129 892Z" fill="#fafafa" stroke="#fafafa"></path><path d="M134 960L190.5 960L129 892Z" fill="#f7f7f7" stroke="#f7f7f7"></path><path d="M257 960L330.5 960L283 891Z" fill="#e4e4e4" stroke="#e4e4e4"></path><path d="M67.5 960L134 960L129 892Z" fill="#efefef" stroke="#efefef"></path><path d="M72.5 54L59.5 126L121 137Z" fill="#efefef" stroke="#efefef"></path><path d="M121 137L59.5 126L73.5 201Z" fill="#e9e9e9" stroke="#e9e9e9"></path><path d="M0 824L0 907L65.5 894Z" fill="#e1e1e1" stroke="#e1e1e1"></path><path d="M65.5 894L67.5 960L129 892Z" fill="#f4f4f4" stroke="#f4f4f4"></path><path d="M330.5 960L395 960L334.5 888Z" fill="#ececec" stroke="#ececec"></path><path d="M471.5 883L540 888L482.5 837Z" fill="#efefef" stroke="#efefef"></path><path d="M540 258L540 183L473.5 204Z" fill="#e9e9e9" stroke="#e9e9e9"></path><path d="M59.5 126L0 138L73.5 201Z" fill="#e9e9e9" stroke="#e9e9e9"></path><path d="M540 183L477.5 133L473.5 204Z" fill="#e4e4e4" stroke="#e4e4e4"></path><path d="M347.5 57L274 130L342.5 140Z" fill="#f4f4f4" stroke="#f4f4f4"></path><path d="M347.5 57L342.5 140L392 67Z" fill="#efefef" stroke="#efefef"></path><path d="M200.5 118L146 51L121 137Z" fill="#f2f2f2" stroke="#f2f2f2"></path><path d="M59.5 126L0 51L0 138Z" fill="#e4e4e4" stroke="#e4e4e4"></path><path d="M0 907L67.5 960L65.5 894Z" fill="#e4e4e4" stroke="#e4e4e4"></path><path d="M470.5 960L540 888L471.5 883Z" fill="#f4f4f4" stroke="#f4f4f4"></path><path d="M257 67L200.5 65L200.5 118Z" fill="#e1e1e1" stroke="#e1e1e1"></path><path d="M392 67L342.5 140L411 134Z" fill="#e1e1e1" stroke="#e1e1e1"></path><path d="M206.5 0L146 51L200.5 65Z" fill="#e9e9e9" stroke="#e9e9e9"></path><path d="M465.5 55L392 67L411 134Z" fill="#efefef" stroke="#efefef"></path><path d="M395 960L470.5 960L414 893Z" fill="#ececec" stroke="#ececec"></path><path d="M206.5 0L200.5 65L257 67Z" fill="#ececec" stroke="#ececec"></path><path d="M200.5 65L146 51L200.5 118Z" fill="#fafafa" stroke="#fafafa"></path><path d="M540 183L540 139L477.5 133Z" fill="#f7f7f7" stroke="#f7f7f7"></path><path d="M477.5 133L465.5 55L411 134Z" fill="#ececec" stroke="#ececec"></path><path d="M0 907L0 960L67.5 960Z" fill="#f2f2f2" stroke="#f2f2f2"></path><path d="M146 51L72.5 54L121 137Z" fill="#fafafa" stroke="#fafafa"></path><path d="M470.5 960L540 960L540 888Z" fill="#e4e4e4" stroke="#e4e4e4"></path><path d="M415 0L335.5 0L347.5 57Z" fill="#f7f7f7" stroke="#f7f7f7"></path><path d="M347.5 57L271 0L257 67Z" fill="#f2f2f2" stroke="#f2f2f2"></path><path d="M540 61L465.5 55L477.5 133Z" fill="#efefef" stroke="#efefef"></path><path d="M335.5 0L271 0L347.5 57Z" fill="#efefef" stroke="#efefef"></path><path d="M146 51L144 0L72.5 54Z" fill="#e9e9e9" stroke="#e9e9e9"></path><path d="M271 0L206.5 0L257 67Z" fill="#f2f2f2" stroke="#f2f2f2"></path><path d="M72.5 54L0 51L59.5 126Z" fill="#f4f4f4" stroke="#f4f4f4"></path><path d="M61.5 0L0 51L72.5 54Z" fill="#ececec" stroke="#ececec"></path><path d="M415 0L347.5 57L392 67Z" fill="#e9e9e9" stroke="#e9e9e9"></path><path d="M206.5 0L144 0L146 51Z" fill="#dedede" stroke="#dedede"></path><path d="M540 139L540 61L477.5 133Z" fill="#e1e1e1" stroke="#e1e1e1"></path><path d="M465.5 55L415 0L392 67Z" fill="#f7f7f7" stroke="#f7f7f7"></path><path d="M484.5 0L415 0L465.5 55Z" fill="#f4f4f4" stroke="#f4f4f4"></path><path d="M144 0L61.5 0L72.5 54Z" fill="#f2f2f2" stroke="#f2f2f2"></path><path d="M540 61L484.5 0L465.5 55Z" fill="#ececec" stroke="#ececec"></path><path d="M61.5 0L0 0L0 51Z" fill="#ececec" stroke="#ececec"></path><path d="M540 61L540 0L484.5 0Z" fill="#efefef" stroke="#efefef"></path></g></svg>