<svg id="visual" viewBox="0 0 540 960" width="540" height="960" xmlns="http://www.w3.org/2000/svg" xmlns:xlink="http://www.w3.org/1999/xlink" version="1.1"><g stroke-width="1" stroke-linejoin="bevel"><path d="M253 468L301 477L305 416Z" fill="#cf6b07" stroke="#cf6b07"></path><path d="M305 416L229 413L253 468Z" fill="#cf6b07" stroke="#cf6b07"></path><path d="M306 552L348 488L301 477Z" fill="#fa7e01" stroke="#fa7e01"></path><path d="M301 477L348 488L305 416Z" fill="#f57c02" stroke="#f57c02"></path><path d="M305 416L253 360L229 413Z" fill="#ec7703" stroke="#ec7703"></path><path d="M361 366L288 355L305 416Z" fill="#d96f06" stroke="#d96f06"></path><path d="M305 416L288 355L253 360Z" fill="#d96f06" stroke="#d96f06"></path><path d="M348 488L368 416L305 416Z" fill="#cf6b07" stroke="#cf6b07"></path><path d="M175 491L240 540L253 468Z" fill="#fa7e01" stroke="#fa7e01"></path><path d="M253 468L240 540L301 477Z" fill="#e27305" stroke="#e27305"></path><path d="M169 361L175 429L229 413Z" fill="#e77504" stroke="#e77504"></path><path d="M229 413L175 429L253 468Z" fill="#e27305" stroke="#e27305"></path><path d="M240 540L306 552L301 477Z" fill="#f57c02" stroke="#f57c02"></path><path d="M368 416L361 366L305 416Z" fill="#d46d06" stroke="#d46d06"></path><path d="M175 429L175 491L253 468Z" fill="#d46d06" stroke="#d46d06"></path><path d="M306 552L347 552L348 488Z" fill="#e77504" stroke="#e77504"></path><path d="M417 466L415 421L368 416Z" fill="#d46d06" stroke="#d46d06"></path><path d="M417 466L368 416L348 488Z" fill="#f17902" stroke="#f17902"></path><path d="M368 416L415 360L361 366Z" fill="#e27305" stroke="#e27305"></path><path d="M416 550L417 466L348 488Z" fill="#d46d06" stroke="#d46d06"></path><path d="M350 289L311 308L361 366Z" fill="#f17902" stroke="#f17902"></path><path d="M361 366L311 308L288 355Z" fill="#d96f06" stroke="#d96f06"></path><path d="M288 355L240 299L253 360Z" fill="#cf6b07" stroke="#cf6b07"></path><path d="M253 360L169 361L229 413Z" fill="#dd7105" stroke="#dd7105"></path><path d="M184 306L169 361L253 360Z" fill="#ec7703" stroke="#ec7703"></path><path d="M119 543L167 541L175 491Z" fill="#d96f06" stroke="#d96f06"></path><path d="M236 613L291 589L240 540Z" fill="#ff8000" stroke="#ff8000"></path><path d="M240 540L291 589L306 552Z" fill="#e27305" stroke="#e27305"></path><path d="M306 552L291 589L347 552Z" fill="#fa7e01" stroke="#fa7e01"></path><path d="M114 472L175 491L175 429Z" fill="#e77504" stroke="#e77504"></path><path d="M175 491L167 541L240 540Z" fill="#ff8000" stroke="#ff8000"></path><path d="M311 308L240 299L288 355Z" fill="#f57c02" stroke="#f57c02"></path><path d="M169 361L131 418L175 429Z" fill="#dd7105" stroke="#dd7105"></path><path d="M428 313L415 360L472 368Z" fill="#e77504" stroke="#e77504"></path><path d="M415 421L415 360L368 416Z" fill="#e27305" stroke="#e27305"></path><path d="M364 600L416 550L347 552Z" fill="#e27305" stroke="#e27305"></path><path d="M347 552L416 550L348 488Z" fill="#cf6b07" stroke="#cf6b07"></path><path d="M428 313L350 289L361 366Z" fill="#d46d06" stroke="#d46d06"></path><path d="M311 308L252 251L240 299Z" fill="#e27305" stroke="#e27305"></path><path d="M240 299L184 306L253 360Z" fill="#e27305" stroke="#e27305"></path><path d="M169 361L106 351L131 418Z" fill="#cf6b07" stroke="#cf6b07"></path><path d="M131 418L114 472L175 429Z" fill="#dd7105" stroke="#dd7105"></path><path d="M179 604L236 613L240 540Z" fill="#fa7e01" stroke="#fa7e01"></path><path d="M291 589L364 600L347 552Z" fill="#f17902" stroke="#f17902"></path><path d="M301 652L364 600L291 589Z" fill="#cf6b07" stroke="#cf6b07"></path><path d="M167 541L179 604L240 540Z" fill="#e77504" stroke="#e77504"></path><path d="M120 609L179 604L167 541Z" fill="#ec7703" stroke="#ec7703"></path><path d="M114 472L119 543L175 491Z" fill="#e77504" stroke="#e77504"></path><path d="M313 229L252 251L311 308Z" fill="#d46d06" stroke="#d46d06"></path><path d="M240 299L179 245L184 306Z" fill="#dd7105" stroke="#dd7105"></path><path d="M472 368L415 360L415 421Z" fill="#e27305" stroke="#e27305"></path><path d="M415 360L428 313L361 366Z" fill="#d46d06" stroke="#d46d06"></path><path d="M350 289L313 229L311 308Z" fill="#d46d06" stroke="#d46d06"></path><path d="M479 408L415 421L417 466Z" fill="#f17902" stroke="#f17902"></path><path d="M117 302L169 361L184 306Z" fill="#f57c02" stroke="#f57c02"></path><path d="M117 302L106 351L169 361Z" fill="#f57c02" stroke="#f57c02"></path><path d="M131 418L68 477L114 472Z" fill="#f17902" stroke="#f17902"></path><path d="M485 492L479 408L417 466Z" fill="#f17902" stroke="#f17902"></path><path d="M364 600L426 586L416 550Z" fill="#cf6b07" stroke="#cf6b07"></path><path d="M416 550L485 492L417 466Z" fill="#cf6b07" stroke="#cf6b07"></path><path d="M479 408L472 368L415 421Z" fill="#f57c02" stroke="#f57c02"></path><path d="M428 313L354 253L350 289Z" fill="#d46d06" stroke="#d46d06"></path><path d="M243 653L301 652L236 613Z" fill="#cf6b07" stroke="#cf6b07"></path><path d="M236 613L301 652L291 589Z" fill="#ff8000" stroke="#ff8000"></path><path d="M364 600L409 650L426 586Z" fill="#d96f06" stroke="#d96f06"></path><path d="M485 541L485 492L416 550Z" fill="#dd7105" stroke="#dd7105"></path><path d="M177 673L243 653L236 613Z" fill="#e27305" stroke="#e27305"></path><path d="M46 409L68 477L131 418Z" fill="#dd7105" stroke="#dd7105"></path><path d="M114 472L68 477L119 543Z" fill="#d46d06" stroke="#d46d06"></path><path d="M354 253L313 229L350 289Z" fill="#d46d06" stroke="#d46d06"></path><path d="M179 245L117 302L184 306Z" fill="#d46d06" stroke="#d46d06"></path><path d="M106 351L67 358L131 418Z" fill="#e77504" stroke="#e77504"></path><path d="M471 590L485 541L416 550Z" fill="#ec7703" stroke="#ec7703"></path><path d="M238 185L179 245L252 251Z" fill="#fa7e01" stroke="#fa7e01"></path><path d="M252 251L179 245L240 299Z" fill="#d46d06" stroke="#d46d06"></path><path d="M67 600L120 609L119 543Z" fill="#d96f06" stroke="#d96f06"></path><path d="M119 543L120 609L167 541Z" fill="#f57c02" stroke="#f57c02"></path><path d="M179 604L177 673L236 613Z" fill="#e77504" stroke="#e77504"></path><path d="M65 302L67 358L106 351Z" fill="#fa7e01" stroke="#fa7e01"></path><path d="M409 650L471 590L426 586Z" fill="#d96f06" stroke="#d96f06"></path><path d="M426 586L471 590L416 550Z" fill="#e77504" stroke="#e77504"></path><path d="M67 358L46 409L131 418Z" fill="#cf6b07" stroke="#cf6b07"></path><path d="M288 709L362 672L301 652Z" fill="#f57c02" stroke="#f57c02"></path><path d="M301 652L362 672L364 600Z" fill="#e27305" stroke="#e27305"></path><path d="M362 672L409 650L364 600Z" fill="#e77504" stroke="#e77504"></path><path d="M472 368L475 300L428 313Z" fill="#e27305" stroke="#e27305"></path><path d="M428 313L432 230L354 253Z" fill="#ec7703" stroke="#ec7703"></path><path d="M351 177L309 173L313 229Z" fill="#ff8000" stroke="#ff8000"></path><path d="M540 347L475 300L472 368Z" fill="#fa7e01" stroke="#fa7e01"></path><path d="M540 406L472 368L479 408Z" fill="#d96f06" stroke="#d96f06"></path><path d="M68 477L60 541L119 543Z" fill="#d46d06" stroke="#d46d06"></path><path d="M0 530L60 541L68 477Z" fill="#d96f06" stroke="#d96f06"></path><path d="M120 609L177 673L179 604Z" fill="#ff8000" stroke="#ff8000"></path><path d="M243 653L288 709L301 652Z" fill="#e77504" stroke="#e77504"></path><path d="M117 302L65 302L106 351Z" fill="#d96f06" stroke="#d96f06"></path><path d="M0 366L0 414L46 409Z" fill="#dd7105" stroke="#dd7105"></path><path d="M65 226L65 302L117 302Z" fill="#cf6b07" stroke="#cf6b07"></path><path d="M540 489L479 408L485 492Z" fill="#f57c02" stroke="#f57c02"></path><path d="M540 489L540 406L479 408Z" fill="#e27305" stroke="#e27305"></path><path d="M540 489L485 492L540 534Z" fill="#e27305" stroke="#e27305"></path><path d="M540 534L485 492L485 541Z" fill="#d96f06" stroke="#d96f06"></path><path d="M475 300L432 230L428 313Z" fill="#f17902" stroke="#f17902"></path><path d="M313 229L238 185L252 251Z" fill="#e27305" stroke="#e27305"></path><path d="M179 245L122 228L117 302Z" fill="#f17902" stroke="#f17902"></path><path d="M309 173L238 185L313 229Z" fill="#cf6b07" stroke="#cf6b07"></path><path d="M234 732L288 709L243 653Z" fill="#f57c02" stroke="#f57c02"></path><path d="M362 672L420 720L409 650Z" fill="#cf6b07" stroke="#cf6b07"></path><path d="M60 541L67 600L119 543Z" fill="#ec7703" stroke="#ec7703"></path><path d="M120 609L110 647L177 673Z" fill="#ff8000" stroke="#ff8000"></path><path d="M67 600L110 647L120 609Z" fill="#d46d06" stroke="#d46d06"></path><path d="M187 190L122 228L179 245Z" fill="#d96f06" stroke="#d96f06"></path><path d="M238 185L187 190L179 245Z" fill="#e77504" stroke="#e77504"></path><path d="M540 606L540 534L485 541Z" fill="#ff8000" stroke="#ff8000"></path><path d="M540 606L485 541L471 590Z" fill="#e77504" stroke="#e77504"></path><path d="M351 177L313 229L354 253Z" fill="#d46d06" stroke="#d46d06"></path><path d="M178 113L114 183L187 190Z" fill="#d46d06" stroke="#d46d06"></path><path d="M540 406L540 347L472 368Z" fill="#f57c02" stroke="#f57c02"></path><path d="M475 300L480 227L432 230Z" fill="#f17902" stroke="#f17902"></path><path d="M432 230L351 177L354 253Z" fill="#e77504" stroke="#e77504"></path><path d="M119 730L192 707L177 673Z" fill="#e27305" stroke="#e27305"></path><path d="M177 673L192 707L243 653Z" fill="#e77504" stroke="#e77504"></path><path d="M288 709L363 711L362 672Z" fill="#ff8000" stroke="#ff8000"></path><path d="M409 650L476 667L471 590Z" fill="#f57c02" stroke="#f57c02"></path><path d="M301 771L363 711L288 709Z" fill="#f17902" stroke="#f17902"></path><path d="M0 414L0 474L46 409Z" fill="#d96f06" stroke="#d96f06"></path><path d="M46 409L0 474L68 477Z" fill="#e27305" stroke="#e27305"></path><path d="M60 541L0 587L67 600Z" fill="#e27305" stroke="#e27305"></path><path d="M0 366L46 409L67 358Z" fill="#ec7703" stroke="#ec7703"></path><path d="M540 347L540 311L475 300Z" fill="#fa7e01" stroke="#fa7e01"></path><path d="M192 707L234 732L243 653Z" fill="#e77504" stroke="#e77504"></path><path d="M0 300L0 366L67 358Z" fill="#ff8000" stroke="#ff8000"></path><path d="M0 300L67 358L65 302Z" fill="#fa7e01" stroke="#fa7e01"></path><path d="M540 239L480 227L475 300Z" fill="#d46d06" stroke="#d46d06"></path><path d="M432 230L433 189L351 177Z" fill="#cf6b07" stroke="#cf6b07"></path><path d="M0 474L0 530L68 477Z" fill="#ec7703" stroke="#ec7703"></path><path d="M67 600L59 668L110 647Z" fill="#d96f06" stroke="#d96f06"></path><path d="M420 720L476 667L409 650Z" fill="#d46d06" stroke="#d46d06"></path><path d="M480 227L433 189L432 230Z" fill="#d46d06" stroke="#d46d06"></path><path d="M476 667L540 606L471 590Z" fill="#ec7703" stroke="#ec7703"></path><path d="M356 771L420 720L363 711Z" fill="#ec7703" stroke="#ec7703"></path><path d="M363 711L420 720L362 672Z" fill="#cf6b07" stroke="#cf6b07"></path><path d="M114 183L65 226L122 228Z" fill="#cf6b07" stroke="#cf6b07"></path><path d="M122 228L65 226L117 302Z" fill="#f57c02" stroke="#f57c02"></path><path d="M178 113L187 190L238 185Z" fill="#cf6b07" stroke="#cf6b07"></path><path d="M187 190L114 183L122 228Z" fill="#e77504" stroke="#e77504"></path><path d="M0 666L59 668L67 600Z" fill="#d96f06" stroke="#d96f06"></path><path d="M110 647L119 730L177 673Z" fill="#cf6b07" stroke="#cf6b07"></path><path d="M178 793L239 767L234 732Z" fill="#cf6b07" stroke="#cf6b07"></path><path d="M0 530L0 587L60 541Z" fill="#fa7e01" stroke="#fa7e01"></path><path d="M0 245L0 300L65 302Z" fill="#ec7703" stroke="#ec7703"></path><path d="M307 106L253 125L309 173Z" fill="#dd7105" stroke="#dd7105"></path><path d="M309 173L253 125L238 185Z" fill="#f17902" stroke="#f17902"></path><path d="M307 106L309 173L351 177Z" fill="#f57c02" stroke="#f57c02"></path><path d="M178 793L234 732L192 707Z" fill="#e77504" stroke="#e77504"></path><path d="M234 732L239 767L288 709Z" fill="#cf6b07" stroke="#cf6b07"></path><path d="M239 767L301 771L288 709Z" fill="#dd7105" stroke="#dd7105"></path><path d="M540 239L482 187L480 227Z" fill="#ff8000" stroke="#ff8000"></path><path d="M480 227L482 187L433 189Z" fill="#dd7105" stroke="#dd7105"></path><path d="M367 107L307 106L351 177Z" fill="#d46d06" stroke="#d46d06"></path><path d="M72 709L119 730L110 647Z" fill="#d96f06" stroke="#d96f06"></path><path d="M540 311L540 239L475 300Z" fill="#f57c02" stroke="#f57c02"></path><path d="M301 771L356 771L363 711Z" fill="#dd7105" stroke="#dd7105"></path><path d="M0 728L72 709L59 668Z" fill="#d46d06" stroke="#d46d06"></path><path d="M59 668L72 709L110 647Z" fill="#e27305" stroke="#e27305"></path><path d="M419 126L351 177L433 189Z" fill="#dd7105" stroke="#dd7105"></path><path d="M489 724L540 671L476 667Z" fill="#e27305" stroke="#e27305"></path><path d="M476 667L540 671L540 606Z" fill="#fa7e01" stroke="#fa7e01"></path><path d="M489 724L476 667L420 720Z" fill="#fa7e01" stroke="#fa7e01"></path><path d="M0 193L0 245L65 226Z" fill="#d96f06" stroke="#d96f06"></path><path d="M65 226L0 245L65 302Z" fill="#d96f06" stroke="#d96f06"></path><path d="M467 768L489 724L420 720Z" fill="#ec7703" stroke="#ec7703"></path><path d="M474 123L433 189L482 187Z" fill="#d46d06" stroke="#d46d06"></path><path d="M474 123L419 126L433 189Z" fill="#e27305" stroke="#e27305"></path><path d="M253 125L178 113L238 185Z" fill="#ec7703" stroke="#ec7703"></path><path d="M114 183L65 166L65 226Z" fill="#d96f06" stroke="#d96f06"></path><path d="M241 56L178 113L253 125Z" fill="#fa7e01" stroke="#fa7e01"></path><path d="M419 126L367 107L351 177Z" fill="#f17902" stroke="#f17902"></path><path d="M118 120L65 166L114 183Z" fill="#d96f06" stroke="#d96f06"></path><path d="M420 828L421 773L356 771Z" fill="#ff8000" stroke="#ff8000"></path><path d="M356 771L421 773L420 720Z" fill="#e77504" stroke="#e77504"></path><path d="M0 587L0 666L67 600Z" fill="#d46d06" stroke="#d46d06"></path><path d="M114 786L178 793L119 730Z" fill="#f17902" stroke="#f17902"></path><path d="M119 730L178 793L192 707Z" fill="#ec7703" stroke="#ec7703"></path><path d="M239 767L232 827L301 771Z" fill="#cf6b07" stroke="#cf6b07"></path><path d="M301 771L359 832L356 771Z" fill="#ff8000" stroke="#ff8000"></path><path d="M114 786L119 730L53 770Z" fill="#d96f06" stroke="#d96f06"></path><path d="M178 113L118 120L114 183Z" fill="#d96f06" stroke="#d96f06"></path><path d="M489 724L540 710L540 671Z" fill="#e77504" stroke="#e77504"></path><path d="M540 778L540 710L489 724Z" fill="#ec7703" stroke="#ec7703"></path><path d="M421 773L467 768L420 720Z" fill="#e27305" stroke="#e27305"></path><path d="M367 107L309 72L307 106Z" fill="#f57c02" stroke="#f57c02"></path><path d="M307 106L309 72L253 125Z" fill="#e27305" stroke="#e27305"></path><path d="M178 113L120 63L118 120Z" fill="#ec7703" stroke="#ec7703"></path><path d="M373 56L309 72L367 107Z" fill="#e77504" stroke="#e77504"></path><path d="M540 168L474 123L482 187Z" fill="#d96f06" stroke="#d96f06"></path><path d="M419 126L373 56L367 107Z" fill="#d96f06" stroke="#d96f06"></path><path d="M0 120L0 193L65 166Z" fill="#f57c02" stroke="#f57c02"></path><path d="M65 166L0 193L65 226Z" fill="#ec7703" stroke="#ec7703"></path><path d="M540 239L540 168L482 187Z" fill="#fa7e01" stroke="#fa7e01"></path><path d="M53 770L119 730L72 709Z" fill="#f57c02" stroke="#f57c02"></path><path d="M188 853L232 827L178 793Z" fill="#d96f06" stroke="#d96f06"></path><path d="M178 793L232 827L239 767Z" fill="#d46d06" stroke="#d46d06"></path><path d="M421 773L420 828L467 768Z" fill="#d46d06" stroke="#d46d06"></path><path d="M309 72L241 56L253 125Z" fill="#ec7703" stroke="#ec7703"></path><path d="M299 853L359 832L301 771Z" fill="#d96f06" stroke="#d96f06"></path><path d="M62 70L55 119L118 120Z" fill="#ff8000" stroke="#ff8000"></path><path d="M118 120L55 119L65 166Z" fill="#f17902" stroke="#f17902"></path><path d="M0 728L53 770L72 709Z" fill="#f17902" stroke="#f17902"></path><path d="M130 839L188 853L178 793Z" fill="#e27305" stroke="#e27305"></path><path d="M0 666L0 728L59 668Z" fill="#d96f06" stroke="#d96f06"></path><path d="M432 50L373 56L419 126Z" fill="#f17902" stroke="#f17902"></path><path d="M309 72L297 0L241 56Z" fill="#fa7e01" stroke="#fa7e01"></path><path d="M359 832L420 828L356 771Z" fill="#d96f06" stroke="#d96f06"></path><path d="M467 768L540 778L489 724Z" fill="#e27305" stroke="#e27305"></path><path d="M287 900L299 853L234 905Z" fill="#d96f06" stroke="#d96f06"></path><path d="M232 827L299 853L301 771Z" fill="#f17902" stroke="#f17902"></path><path d="M359 832L372 907L420 828Z" fill="#cf6b07" stroke="#cf6b07"></path><path d="M241 56L166 53L178 113Z" fill="#d46d06" stroke="#d46d06"></path><path d="M184 0L166 53L241 56Z" fill="#fa7e01" stroke="#fa7e01"></path><path d="M166 53L120 63L178 113Z" fill="#f57c02" stroke="#f57c02"></path><path d="M540 168L540 119L474 123Z" fill="#e27305" stroke="#e27305"></path><path d="M474 123L432 50L419 126Z" fill="#f57c02" stroke="#f57c02"></path><path d="M130 839L178 793L114 786Z" fill="#fa7e01" stroke="#fa7e01"></path><path d="M482 840L540 778L467 768Z" fill="#dd7105" stroke="#dd7105"></path><path d="M73 834L114 786L53 770Z" fill="#ec7703" stroke="#ec7703"></path><path d="M73 834L130 839L114 786Z" fill="#d46d06" stroke="#d46d06"></path><path d="M469 47L432 50L474 123Z" fill="#d46d06" stroke="#d46d06"></path><path d="M347 0L297 0L309 72Z" fill="#cf6b07" stroke="#cf6b07"></path><path d="M55 119L0 120L65 166Z" fill="#dd7105" stroke="#dd7105"></path><path d="M62 70L0 120L55 119Z" fill="#e77504" stroke="#e77504"></path><path d="M66 0L62 70L120 63Z" fill="#fa7e01" stroke="#fa7e01"></path><path d="M120 63L62 70L118 120Z" fill="#e77504" stroke="#e77504"></path><path d="M0 728L0 777L53 770Z" fill="#f17902" stroke="#f17902"></path><path d="M540 55L469 47L474 123Z" fill="#ff8000" stroke="#ff8000"></path><path d="M347 0L309 72L373 56Z" fill="#ff8000" stroke="#ff8000"></path><path d="M0 832L73 834L53 770Z" fill="#dd7105" stroke="#dd7105"></path><path d="M130 839L172 892L188 853Z" fill="#f17902" stroke="#f17902"></path><path d="M421 904L482 840L420 828Z" fill="#cf6b07" stroke="#cf6b07"></path><path d="M420 828L482 840L467 768Z" fill="#e77504" stroke="#e77504"></path><path d="M347 0L373 56L407 0Z" fill="#f17902" stroke="#f17902"></path><path d="M166 53L124 0L120 63Z" fill="#e77504" stroke="#e77504"></path><path d="M297 0L244 0L241 56Z" fill="#d96f06" stroke="#d96f06"></path><path d="M407 0L373 56L432 50Z" fill="#e27305" stroke="#e27305"></path><path d="M234 905L299 853L232 827Z" fill="#fa7e01" stroke="#fa7e01"></path><path d="M299 853L372 907L359 832Z" fill="#cf6b07" stroke="#cf6b07"></path><path d="M234 905L232 827L188 853Z" fill="#f57c02" stroke="#f57c02"></path><path d="M244 0L184 0L241 56Z" fill="#d96f06" stroke="#d96f06"></path><path d="M119 906L172 892L130 839Z" fill="#dd7105" stroke="#dd7105"></path><path d="M540 896L540 828L482 840Z" fill="#e27305" stroke="#e27305"></path><path d="M482 840L540 828L540 778Z" fill="#ff8000" stroke="#ff8000"></path><path d="M487 0L407 0L432 50Z" fill="#cf6b07" stroke="#cf6b07"></path><path d="M172 892L234 905L188 853Z" fill="#ec7703" stroke="#ec7703"></path><path d="M540 119L540 55L474 123Z" fill="#ff8000" stroke="#ff8000"></path><path d="M469 47L487 0L432 50Z" fill="#dd7105" stroke="#dd7105"></path><path d="M287 900L372 907L299 853Z" fill="#d96f06" stroke="#d96f06"></path><path d="M310 960L372 907L287 900Z" fill="#d96f06" stroke="#d96f06"></path><path d="M184 0L124 0L166 53Z" fill="#d46d06" stroke="#d46d06"></path><path d="M62 70L0 56L0 120Z" fill="#ff8000" stroke="#ff8000"></path><path d="M73 834L119 906L130 839Z" fill="#f57c02" stroke="#f57c02"></path><path d="M0 777L0 832L53 770Z" fill="#cf6b07" stroke="#cf6b07"></path><path d="M372 907L421 904L420 828Z" fill="#dd7105" stroke="#dd7105"></path><path d="M66 0L0 56L62 70Z" fill="#fa7e01" stroke="#fa7e01"></path><path d="M72 906L119 906L73 834Z" fill="#f57c02" stroke="#f57c02"></path><path d="M188 960L233 960L234 905Z" fill="#dd7105" stroke="#dd7105"></path><path d="M413 960L421 904L372 907Z" fill="#f57c02" stroke="#f57c02"></path><path d="M540 55L487 0L469 47Z" fill="#dd7105" stroke="#dd7105"></path><path d="M124 0L66 0L120 63Z" fill="#dd7105" stroke="#dd7105"></path><path d="M0 893L72 906L73 834Z" fill="#f57c02" stroke="#f57c02"></path><path d="M310 960L287 900L233 960Z" fill="#e77504" stroke="#e77504"></path><path d="M287 900L234 905L233 960Z" fill="#fa7e01" stroke="#fa7e01"></path><path d="M470 960L488 912L421 904Z" fill="#f57c02" stroke="#f57c02"></path><path d="M421 904L488 912L482 840Z" fill="#ff8000" stroke="#ff8000"></path><path d="M540 55L540 0L487 0Z" fill="#fa7e01" stroke="#fa7e01"></path><path d="M234 905L172 892L188 960Z" fill="#e27305" stroke="#e27305"></path><path d="M188 960L172 892L119 906Z" fill="#dd7105" stroke="#dd7105"></path><path d="M488 912L540 896L482 840Z" fill="#d96f06" stroke="#d96f06"></path><path d="M310 960L354 960L372 907Z" fill="#d46d06" stroke="#d46d06"></path><path d="M488 912L540 960L540 896Z" fill="#d96f06" stroke="#d96f06"></path><path d="M113 960L188 960L119 906Z" fill="#dd7105" stroke="#dd7105"></path><path d="M66 0L0 0L0 56Z" fill="#e27305" stroke="#e27305"></path><path d="M0 832L0 893L73 834Z" fill="#ff8000" stroke="#ff8000"></path><path d="M72 906L113 960L119 906Z" fill="#cf6b07" stroke="#cf6b07"></path><path d="M354 960L413 960L372 907Z" fill="#f17902" stroke="#f17902"></path><path d="M61 960L113 960L72 906Z" fill="#e77504" stroke="#e77504"></path><path d="M413 960L470 960L421 904Z" fill="#ec7703" stroke="#ec7703"></path><path d="M0 893L61 960L72 906Z" fill="#cf6b07" stroke="#cf6b07"></path><path d="M470 960L540 960L488 912Z" fill="#dd7105" stroke="#dd7105"></path><path d="M0 893L0 960L61 960Z" fill="#f17902" stroke="#f17902"></path></g></svg>