<svg id="SvgjsSvg1034" width="288" height="288" xmlns="http://www.w3.org/2000/svg" version="1.1" xmlns:xlink="http://www.w3.org/1999/xlink" xmlns:svgjs="http://svgjs.com/svgjs"><defs id="SvgjsDefs1035"></defs><g id="SvgjsG1036"><svg xmlns="http://www.w3.org/2000/svg" viewBox="0 0 512 512" width="288" height="288"><path fill="#15d676" d="M415.45 197.1a163.256 163.256 0 1 1-301.739-6.8l39.3 26.8-.14-133.372L28.655 132.3l37.4 25.5A219.236 219.236 0 0 0 42.986 256c0 121.6 98.578 220.18 220.179 220.18S483.345 377.6 483.345 256a219.521 219.521 0 0 0-16.234-83.089zM341.905 112.977a163.957 163.957 0 0 1 45.584 37.24l40.787-39.861a221.054 221.054 0 0 0-61.95-48.906zM314.254 41.791a220.757 220.757 0 0 0-51.089-5.971V92.756a163.593 163.593 0 0 1 39.946 4.931z" class="colorcde877 svgShape"></path><polygon fill="#ffcf64" points="237.46 171.841 298.858 171.841 281.504 225.708 332.362 225.708 232.294 358.841 257.269 265.341 207.017 265.341 237.46 171.841" class="colorffcf64 svgShape"></polygon><path fill="#f2a330" d="M212.614,248.152l-5.6,17.189,55.408,2.582,3.108-11.678a6.438,6.438,0,0,0-6.221-8.093Z" class="colorf2a330 svgShape"></path><path fill="#109854" d="M102.227,228.633A162.317,162.317,0,0,1,113.711,190.3L66.059,157.8a218.88,218.88,0,0,0-14.738,38.1Z" class="color93bc4b svgShape"></path><path fill="#333333" d="M229.808 363.95a5.68 5.68 0 0 0 7.027-1.695L336.9 229.121a5.682 5.682 0 0 0-4.542-9.1H299.97a5.682 5.682 0 0 0 0 11.364h21.012L245.335 332.034l17.422-65.228a5.679 5.679 0 0 0-5.488-7.147H214.842l26.744-82.137h49.472L276.1 223.965a5.682 5.682 0 1 0 10.817 3.484l17.354-53.866a5.682 5.682 0 0 0-5.408-7.424h-61.4a5.682 5.682 0 0 0-5.4 3.923l-30.443 93.5a5.683 5.683 0 0 0 5.4 7.441H249.87L226.8 357.375A5.682 5.682 0 0 0 229.808 363.95zM339.159 117.95a157.655 157.655 0 0 1 44 35.952 5.681 5.681 0 0 0 4.066 1.992c.086 0 .173.006.259.006a5.682 5.682 0 0 0 3.972-1.619l40.788-39.862a5.683 5.683 0 0 0 .289-7.824 225.9 225.9 0 0 0-63.545-50.162 5.681 5.681 0 0 0-7.8 2.584l-24.422 51.526A5.68 5.68 0 0 0 339.159 117.95zm29.718-48.619A214.333 214.333 0 0 1 420.4 110.115l-32.6 31.862a168.686 168.686 0 0 0-38.5-31.319z" class="color333 svgShape"></path><path fill="#333333" d="M469.181 167.62a5.7 5.7 0 0 0-4.479.145l-51.661 24.186a5.684 5.684 0 0 0-2.89 7.2A156.864 156.864 0 0 1 420.728 256c0 86.88-70.682 157.561-157.563 157.561S105.6 342.881 105.6 256a156.376 156.376 0 0 1 10.68-57.077l33.525 22.863a5.683 5.683 0 0 0 8.884-4.7l-.142-133.372a5.682 5.682 0 0 0-7.751-5.287L26.586 127a5.682 5.682 0 0 0-1.132 9.986L58.8 159.732A223.527 223.527 0 0 0 37.3 256c0 124.541 101.32 225.861 225.861 225.861S489.027 380.542 489.027 256a224.64 224.64 0 0 0-16.654-85.235A5.684 5.684 0 0 0 469.181 167.62zM263.165 470.5c-118.274 0-214.5-96.224-214.5-214.5a212.3 212.3 0 0 1 22.475-95.663 5.682 5.682 0 0 0-1.883-7.231L40.75 133.667 147.194 92.039l.122 114.3-30.4-20.733a5.682 5.682 0 0 0-8.4 2.4 167.692 167.692 0 0 0-14.272 68c0 93.146 75.78 168.925 168.926 168.925S432.092 349.147 432.092 256a168.263 168.263 0 0 0-9.5-55.971l41.444-19.4A213.383 213.383 0 0 1 477.663 256C477.663 374.275 381.439 470.5 263.165 470.5zM263.165 30.138a5.682 5.682 0 0 0-5.681 5.682V92.756a5.682 5.682 0 0 0 5.681 5.682 158.171 158.171 0 0 1 38.56 4.759 5.683 5.683 0 0 0 6.958-4.4l11.144-55.9a5.681 5.681 0 0 0-4.259-6.638A226.919 226.919 0 0 0 263.165 30.138zm35.521 60.687a169.649 169.649 0 0 0-29.839-3.656V41.576A215.633 215.633 0 0 1 307.6 46.122z" class="color333 svgShape"></path></svg></g></svg>